HIERARCHY
ROOT joint_Root
{
	OFFSET 0.0 0.0 0.0
	CHANNELS 6 Xposition Yposition Zposition Zrotation Xrotation Yrotation 
	JOINT Hips
	{
		OFFSET -0.726466 93.3139 -2.00062
		CHANNELS 6 Xposition Yposition Zposition Zrotation Xrotation Yrotation 
		JOINT Spine
		{
			OFFSET 15.7357 0.0 0.0
			CHANNELS 6 Xposition Yposition Zposition Zrotation Xrotation Yrotation 
			JOINT Chest
			{
				OFFSET 8.98455 -0.406207 0.0
				CHANNELS 6 Xposition Yposition Zposition Zrotation Xrotation Yrotation 
				JOINT Neck
				{
					OFFSET 16.3773 0.0 0.0
					CHANNELS 6 Xposition Yposition Zposition Zrotation Xrotation Yrotation 
					JOINT Head
					{
						OFFSET 6.45672 0.0 0.0
						CHANNELS 6 Xposition Yposition Zposition Zrotation Xrotation Yrotation 
						End Site
						{
							OFFSET 0.0 0.0 0.0
						}
					}
				}
				JOINT Shoulder_L
				{
					OFFSET 12.9942 -0.242716 4.98039
					CHANNELS 6 Xposition Yposition Zposition Zrotation Xrotation Yrotation 
					JOINT UpperArm_L
					{
						OFFSET 5.34809 0.0 0.0
						CHANNELS 6 Xposition Yposition Zposition Zrotation Xrotation Yrotation 
						JOINT LowerArm_L
						{
							OFFSET 24.3286 1.87007e-05 0.0
							CHANNELS 6 Xposition Yposition Zposition Zrotation Xrotation Yrotation 
							JOINT Hand_L
							{
								OFFSET 22.2916 0.0 0.0
								CHANNELS 6 Xposition Yposition Zposition Zrotation Xrotation Yrotation 
								End Site
								{
									OFFSET 0.0 0.0 0.0
								}
							}
						}
					}
				}
				JOINT Shoulder_R
				{
					OFFSET 12.9945 -0.242716 -4.98039
					CHANNELS 6 Xposition Yposition Zposition Zrotation Xrotation Yrotation 
					JOINT UpperArm_R
					{
						OFFSET -5.34813 0.0 0.0
						CHANNELS 6 Xposition Yposition Zposition Zrotation Xrotation Yrotation 
						JOINT LowerArm_R
						{
							OFFSET -24.3289 0.000322201 0.0
							CHANNELS 6 Xposition Yposition Zposition Zrotation Xrotation Yrotation 
							JOINT Hand_R
							{
								OFFSET -22.2915 -0.000108084 0.0
								CHANNELS 6 Xposition Yposition Zposition Zrotation Xrotation Yrotation 
								End Site
								{
									OFFSET 0.0 0.0 0.0
								}
							}
						}
					}
				}
			}
		}
		JOINT UpperLeg_L
		{
			OFFSET -2.19248 -6.46944 0.0
			CHANNELS 6 Xposition Yposition Zposition Zrotation Xrotation Yrotation 
			JOINT LowerLeg_L
			{
				OFFSET 39.0811 0.0 -1.23785e-05
				CHANNELS 6 Xposition Yposition Zposition Zrotation Xrotation Yrotation 
				JOINT Foot_L
				{
					OFFSET 40.9854 0.0 -1.26872e-05
					CHANNELS 6 Xposition Yposition Zposition Zrotation Xrotation Yrotation 
					JOINT Toes_L
					{
						OFFSET 11.7543 0.0 0.0
						CHANNELS 6 Xposition Yposition Zposition Zrotation Xrotation Yrotation 
						End Site
						{
							OFFSET 0.0 0.0 0.0
						}
					}
				}
			}
		}
		JOINT UpperLeg_R
		{
			OFFSET -2.19251 6.46944 0.0
			CHANNELS 6 Xposition Yposition Zposition Zrotation Xrotation Yrotation 
			JOINT LowerLeg_R
			{
				OFFSET -39.0811 -0.00228153 -0.0401928
				CHANNELS 6 Xposition Yposition Zposition Zrotation Xrotation Yrotation 
				JOINT Foot_R
				{
					OFFSET -40.9854 0.0 0.0
					CHANNELS 6 Xposition Yposition Zposition Zrotation Xrotation Yrotation 
					JOINT Toes_R
					{
						OFFSET -11.7543 0.0 0.0
						CHANNELS 6 Xposition Yposition Zposition Zrotation Xrotation Yrotation 
						End Site
						{
							OFFSET 0.0 0.0 0.0
						}
					}
				}
			}
		}
	}
}
MOTION
Frames:	7
Frame Time:	0.0333333
0.000000 0.000000 0.000000 0.000000 0.000000 -0.000000 -0.440752 91.844200 3.667820 88.007000 -0.984929 3.069890 15.735700 0.000005 -0.000001 80.661800 85.908300 -79.982200 8.984550 -0.406207 -0.000000 0.317704 -1.371640 1.362270 16.377300 -0.000001 -0.000001 1.824860 -1.286610 0.253605 6.456720 -0.000001 -0.000000 3.219030 -0.251532 -0.770481 12.994200 -0.242716 4.980390 -90.002800 0.008352 -71.496500 5.348090 -0.000007 -0.000001 -67.853200 37.116900 -13.844500 24.328600 0.000019 0.000005 2.406490 5.410550 -24.021900 22.291600 -0.000001 0.000005 4.970810 5.540170 -8.249220 12.994500 -0.242716 -4.980390 88.145400 5.600710 -71.644900 -5.348130 -0.000001 -0.000004 -65.811200 29.500200 -13.011800 -24.328900 0.000322 -0.000009 -0.763878 -2.007110 -20.814800 -22.291500 -0.000108 -0.000004 7.605840 5.522250 -7.459070 -2.192480 -6.469440 -0.000000 -169.435000 -17.805800 -1.753600 39.081100 -0.000007 -0.000012 -0.208166 0.500533 22.582200 40.985400 -0.000006 -0.000013 -6.897240 -1.705700 -65.550800 11.754300 -0.000000 0.000003 -0.000195 -0.001811 -16.645900 -2.192510 6.469440 -0.000001 172.486000 21.803500 -178.124000 -39.081100 -0.002282 -0.040193 -0.082630 0.266342 17.886300 -40.985400 0.000008 0.000006 -6.011600 3.354580 -63.709700 -11.754300 -0.000006 -0.000006 -0.001605 -0.023655 -17.535000
0.000000 0.000000 0.000000 0.000000 0.000000 -0.000000 -0.434059 91.852400 3.565960 88.024100 -0.838061 3.202790 15.735700 0.000005 -0.000001 80.242800 85.819800 -79.555200 8.984550 -0.406207 -0.000000 0.482944 -1.460130 1.380340 16.377300 -0.000001 -0.000001 1.799850 -1.260770 0.252132 6.456720 -0.000001 -0.000000 2.861970 -0.141871 -0.890984 12.994200 -0.242716 4.980390 -89.935800 -0.191350 -71.443700 5.348090 -0.000007 -0.000001 -68.489600 34.793100 -13.388700 24.328600 0.000019 0.000005 2.937620 6.496090 -24.397500 22.291600 -0.000001 0.000005 6.243160 5.549420 -8.676810 12.994500 -0.242716 -4.980390 88.160100 5.517500 -71.526100 -5.348130 -0.000001 -0.000004 -65.295600 26.646800 -13.458200 -24.328900 0.000322 -0.000009 -0.531703 -1.415450 -20.551100 -22.291500 -0.000108 -0.000004 9.156000 5.512110 -7.032150 -2.192480 -6.469440 -0.000000 -169.436000 -17.783400 -1.745680 39.081100 -0.000007 -0.000012 -0.207359 0.497939 22.608900 40.985400 -0.000006 -0.000013 -6.833900 -1.572530 -65.463000 11.754300 -0.000000 0.000003 -0.000186 -0.001739 -16.643300 -2.192510 6.469440 -0.000001 172.448000 21.881800 -178.072000 -39.081100 -0.002282 -0.040193 -0.080252 0.257720 17.967600 -40.985400 0.000008 0.000006 -5.894390 3.267280 -63.710300 -11.754300 -0.000006 -0.000006 -0.001743 -0.025453 -17.608100
0.000000 0.000000 0.000000 0.000000 0.000000 -0.000000 -0.433347 91.855600 3.439480 88.051400 -0.717135 3.346190 15.735700 0.000005 -0.000001 79.836600 85.755000 -79.149100 8.984550 -0.406207 -0.000000 0.600686 -1.540580 1.382120 16.377300 -0.000001 -0.000001 1.952280 -1.259300 0.223223 6.456720 -0.000001 -0.000000 2.514390 -0.078192 -1.004670 12.994200 -0.242716 4.980390 -89.854100 -0.433197 -71.381900 5.348090 -0.000007 -0.000001 -68.295200 32.531800 -13.350100 24.328600 0.000019 0.000005 3.626690 7.890250 -24.783100 22.291600 -0.000001 0.000005 7.974650 5.555780 -8.981320 12.994500 -0.242716 -4.980390 88.160600 5.463510 -71.361400 -5.348130 -0.000001 -0.000004 -64.064500 23.484700 -14.421200 -24.328900 0.000322 -0.000009 -0.339361 -0.941695 -19.761400 -22.291500 -0.000108 -0.000004 10.589000 5.507610 -6.844280 -2.192480 -6.469440 -0.000000 -169.454000 -17.692000 -1.745120 39.081100 -0.000007 -0.000012 -0.205930 0.493227 22.661600 40.985400 -0.000006 -0.000013 -6.789570 -1.516910 -65.393100 11.754300 -0.000000 0.000003 -0.000176 -0.001660 -16.640400 -2.192510 6.469440 -0.000001 172.413000 21.801500 -178.059000 -39.081100 -0.002282 -0.040193 -0.080598 0.257004 18.084200 -40.985400 0.000008 0.000006 -5.850380 3.132060 -63.718200 -11.754300 -0.000006 -0.000006 -0.001833 -0.026604 -17.654900
0.000000 0.000000 0.000000 0.000000 0.000000 -0.000000 -0.420353 91.859500 3.327830 88.061800 -0.669021 3.560650 15.735700 0.000005 -0.000001 79.945300 85.687300 -79.270000 8.984550 -0.406207 -0.000000 0.736777 -1.546780 1.359630 16.377300 -0.000001 -0.000001 2.076820 -1.256850 0.203913 6.456720 -0.000001 -0.000000 2.366140 -0.072807 -1.055130 12.994200 -0.242716 4.980390 -89.776300 -0.658571 -71.236800 5.348090 -0.000007 -0.000001 -66.819000 29.923000 -14.114000 24.328600 0.000019 0.000005 4.410750 9.533170 -24.973100 22.291600 -0.000001 0.000005 8.352340 5.555750 -8.980390 12.994500 -0.242716 -4.980390 88.212600 5.248890 -71.164300 -5.348130 -0.000001 -0.000004 -62.558300 19.493700 -15.810800 -24.328900 0.000322 -0.000009 -0.252790 -0.755527 -18.428300 -22.291500 -0.000108 -0.000004 11.193800 5.497450 -6.430970 -2.192480 -6.469440 -0.000000 -169.438000 -17.608100 -1.637850 39.081100 -0.000007 -0.000012 -0.206667 0.493812 22.710300 40.985400 -0.000006 -0.000013 -6.762620 -1.555000 -65.348900 11.754300 -0.000000 0.000003 -0.000175 -0.001652 -16.640100 -2.192510 6.469440 -0.000001 172.356000 21.776700 -177.960000 -39.081100 -0.002282 -0.040193 -0.079560 0.252350 18.182900 -40.985400 0.000008 0.000006 -5.816780 3.029070 -63.702100 -11.754300 -0.000006 -0.000006 -0.001882 -0.027230 -17.680300
0.000000 0.000000 0.000000 0.000000 0.000000 -0.000000 -0.398637 91.840200 3.231320 88.112400 -0.640447 3.834950 15.735700 0.000005 -0.000001 80.039900 85.646900 -79.407100 8.984550 -0.406207 -0.000000 0.818122 -1.543630 1.275650 16.377300 -0.000001 -0.000001 2.395030 -1.199450 0.196407 6.456720 -0.000001 -0.000000 2.289020 -0.125212 -1.010430 12.994200 -0.242716 4.980390 -89.702600 -0.862743 -70.981500 5.348090 -0.000007 -0.000001 -64.506500 26.178300 -15.330500 24.328600 0.000019 0.000005 4.463590 9.868870 -24.486500 22.291600 -0.000001 0.000005 8.524260 5.557400 -9.060270 12.994500 -0.242716 -4.980390 88.330300 4.864000 -71.028000 -5.348130 -0.000001 -0.000004 -60.994700 14.348500 -17.361900 -24.328900 0.000322 -0.000009 -0.281149 -0.925522 -16.837400 -22.291500 -0.000108 -0.000004 11.476600 5.487190 -6.026770 -2.192480 -6.469440 -0.000000 -169.440000 -17.606000 -1.533730 39.081100 -0.000007 -0.000012 -0.206737 0.489346 22.903300 40.985400 -0.000006 -0.000013 -6.711740 -1.507930 -65.370500 11.754300 -0.000000 0.000003 -0.000169 -0.001606 -16.638400 -2.192510 6.469440 -0.000001 172.160000 21.742000 -177.777000 -39.081100 -0.002282 -0.040193 -0.086835 0.272427 18.311900 -40.985400 0.000008 0.000006 -6.113080 3.091780 -63.690400 -11.754300 -0.000006 -0.000006 -0.001950 -0.028086 -17.715200
0.000000 0.000000 0.000000 0.000000 0.000000 -0.000000 -0.401825 91.838900 3.144520 88.121600 -0.632048 4.133640 15.735700 0.000005 -0.000001 80.370800 85.615000 -79.776500 8.984550 -0.406207 -0.000000 0.888940 -1.502090 1.199350 16.377300 -0.000001 -0.000001 2.682520 -1.164720 0.176850 6.456720 -0.000001 -0.000000 2.444810 -0.236069 -0.890351 12.994200 -0.242716 4.980390 -89.599100 -1.148860 -70.760700 5.348090 -0.000007 -0.000001 -62.024500 20.655500 -16.865500 24.328600 0.000019 0.000005 3.726390 8.785900 -23.092200 22.291600 -0.000001 0.000005 8.748610 5.556930 -9.037620 12.994500 -0.242716 -4.980390 88.499200 4.356730 -70.971000 -5.348130 -0.000001 -0.000004 -59.389100 8.077470 -19.209200 -24.328900 0.000322 -0.000009 -0.175027 -0.653590 -14.908700 -22.291500 -0.000108 -0.000004 11.947200 5.473080 -5.486550 -2.192480 -6.469440 -0.000000 -169.354000 -17.563000 -1.286240 39.081100 -0.000007 -0.000012 -0.208998 0.494048 22.930300 40.985400 -0.000006 -0.000013 -6.690720 -1.436640 -65.336600 11.754300 -0.000000 0.000003 -0.000167 -0.001590 -16.637800 -2.192510 6.469440 -0.000001 172.055000 21.699200 -177.563000 -39.081100 -0.002282 -0.040193 -0.088249 0.275174 18.406700 -40.985400 0.000008 0.000006 -6.084440 3.067710 -63.690900 -11.754300 -0.000006 -0.000006 -0.001990 -0.028587 -17.735500
0.000000 0.000000 0.000000 0.000000 0.000000 -0.000000 -0.410716 91.818400 3.058480 88.143400 -0.575250 4.467240 15.735700 0.000005 -0.000001 80.664000 85.602600 -80.107800 8.984550 -0.406207 -0.000000 0.919965 -1.459390 1.123190 16.377300 -0.000001 -0.000001 3.010320 -1.149000 0.132700 6.456720 -0.000001 -0.000000 2.721420 -0.343313 -0.741916 12.994200 -0.242716 4.980390 -89.411700 -1.670480 -70.597400 5.348090 -0.000007 -0.000001 -60.053300 13.228500 -18.578000 24.328600 0.000019 0.000005 2.920400 7.568750 -21.171700 22.291600 -0.000001 0.000005 8.984070 5.552820 -8.839890 12.994500 -0.242716 -4.980390 88.719200 3.702380 -70.902400 -5.348130 -0.000001 -0.000004 -57.508600 1.371350 -21.483100 -24.328900 0.000322 -0.000009 -0.084596 -0.371218 -12.673100 -22.291500 -0.000108 -0.000004 12.357200 5.454660 -4.809080 -2.192480 -6.469440 -0.000000 -169.275000 -17.491500 -1.091630 39.081100 -0.000007 -0.000012 -0.212626 0.498614 23.095400 40.985400 -0.000006 -0.000013 -6.679510 -1.402880 -65.357700 11.754300 -0.000000 0.000003 -0.000162 -0.001551 -16.636400 -2.192510 6.469440 -0.000001 171.924000 21.695200 -177.383000 -39.081100 -0.002282 -0.040193 -0.090305 0.277114 18.668700 -40.985400 0.000008 0.000006 -6.084240 3.064590 -63.779800 -11.754300 -0.000006 -0.000006 -0.002043 -0.029255 -17.762700
